<svg width="92" height="112" viewBox="0 0 92 112" fill="none" xmlns="http://www.w3.org/2000/svg">
<path d="M43.6749 13.4651L36.0342 5.87374C28.1471 -1.95791 15.3737 -1.95791 7.49279 5.87374L5.9215 7.43267C-1.96561 15.2643 -1.96561 27.9638 5.9215 35.7893L6.3467 36.2144C9.85277 39.6959 14.1414 42.2777 18.812 43.9475C39.4479 51.3232 39.0043 61.2745 18.6826 68.2004C14.1167 69.7532 9.92055 72.2425 6.50075 75.6315L5.91533 76.2107C-1.97178 84.0424 -1.97178 96.7418 5.91533 104.567L7.48662 106.126C15.3737 113.958 28.1471 113.958 36.028 106.126L43.6687 98.5349C51.5496 90.7033 51.5496 78.0038 43.6687 70.1783C35.7816 62.3466 35.7816 49.6472 43.6687 41.8217C51.5496 33.9901 51.5496 21.2906 43.6687 13.4651H43.6749Z" fill="#FF5640"/>
<path d="M45.9917 56.0061C45.9917 62.7102 58.8637 77.1596 70.3616 77.1596C81.8596 77.1596 91.6506 67.6889 91.6506 56.0061C91.6506 44.3234 82.1245 34.8527 70.3616 34.8527L45.9917 56.0061Z" fill="#FF5640"/>
<path d="M45.9917 56.0061C45.9917 49.3021 58.8637 34.8527 70.3616 34.8527C81.8596 34.8527 91.6506 44.3234 91.6506 56.0061C91.6506 67.6889 82.1245 77.1596 70.3616 77.1596L45.9917 56.0061Z" fill="#FF5640"/>
</svg>
